<?xml version="1.0" encoding="UTF-8"?>
<!-- Generator: Adobe Illustrator 21.1.0, SVG Export Plug-In . SVG Version: 6.00 Build 0)  -->
<svg version="1.1" id="svg6334" xmlns:svg="http://www.w3.org/2000/svg" xmlns="http://www.w3.org/2000/svg" xmlns:xlink="http://www.w3.org/1999/xlink" x="0px" y="0px" viewBox="0 0 305.2 305.2" style="enable-background:new 0 0 305.2 305.2;" xml:space="preserve">
<style type="text/css">
	.st0{fill:#262A31;}
</style>
<g id="layer1" transform="translate(44.104555,-81.434979)">
	<path id="path224" class="st0" d="M202.8,325.1c-0.8,0-1.5,0.7-1.5,1.5c0,0.8,0.7,1.5,1.5,1.5c0.8,0,1.5-0.7,1.5-1.5   C204.3,325.7,203.6,325.1,202.8,325.1 M15.1,325.6c-0.8,0-1.5,0.7-1.5,1.5c0,0.8,0.7,1.5,1.5,1.5c0.8,0,1.5-0.7,1.5-1.5   C16.6,326.2,15.9,325.6,15.1,325.6 M201.3,139.9c-0.8,0-1.5,0.7-1.5,1.5c0,0.8,0.7,1.5,1.5,1.5c0.8,0,1.5-0.7,1.5-1.5   C202.8,140.6,202.1,139.9,201.3,139.9 M14.6,142.8c0.8,0,1.5-0.7,1.5-1.5c0-0.8-0.7-1.5-1.5-1.5c-0.8,0-1.5,0.7-1.5,1.5   C13.2,142.2,13.8,142.8,14.6,142.8 M224.2,306.7c-1.1-0.7-2.1-0.9-3.1-0.7c-1,0.3-2,0.7-2.9,1.4l-1,0.6c0,0-0.1,0-0.1,0.1   c0,0,0,0-0.1,0.1c-0.8,0.5-1.5,0.9-2.3,1.1c-0.8,0.3-1.6,0.1-2.4-0.5c-0.9-0.6-1.3-1.4-1.5-2.3c-0.1-1,0.1-1.9,0.6-2.7   c0.5-0.8,1.3-1.3,2.2-1.5c0.9-0.2,1.8-0.1,2.7,0.4l0.6-2c-1.3-0.5-2.6-0.6-3.9-0.3c-1.3,0.4-2.3,1.2-3.1,2.4   c-0.9,1.3-1.2,2.7-0.9,4.2c0.3,1.5,1.1,2.7,2.4,3.6c1.2,0.8,2.3,1.1,3.4,0.7c1.1-0.3,2.2-0.8,3.3-1.5l1.1-0.7   c0.1-0.1,0.2-0.1,0.3-0.2c0.1-0.1,0.2-0.2,0.4-0.2c0.5-0.3,1-0.5,1.6-0.6c0.6-0.2,1.1-0.1,1.6,0.3c0.7,0.5,1.1,1.1,1.2,1.9   c0.1,0.8-0.1,1.5-0.5,2.2c-0.4,0.6-0.9,1.1-1.5,1.3c-0.5,0.2-1.2,0.3-1.9,0.2l0,1.9c1,0.1,1.9-0.1,2.8-0.5c0.9-0.4,1.6-1,2.1-1.9   c0.8-1.1,1.1-2.3,0.9-3.6C226.1,308.5,225.4,307.5,224.2,306.7 M220.3,315.8L220.3,315.8C220.3,315.8,220.3,315.8,220.3,315.8   L220.3,315.8 M216.8,291.9l16.1,8.3l0.9-1.8l-16.1-8.3L216.8,291.9 M235.8,288.4L235.8,288.4C235.8,288.4,235.7,288.4,235.8,288.4   L235.8,288.4 M237.5,278.7c-1.2-0.5-2.3-0.4-3.2,0.1c-0.9,0.5-1.7,1.2-2.6,2l-0.9,0.9c0,0,0,0-0.1,0.1c0,0,0,0-0.1,0.1   c-0.6,0.6-1.3,1.2-2,1.6c-0.7,0.4-1.5,0.5-2.5,0.1c-1-0.4-1.6-1-2-2c-0.4-0.9-0.4-1.9,0-2.8c0.3-0.9,0.9-1.6,1.8-1.9   c0.8-0.4,1.7-0.5,2.7-0.2l0.2-2c-1.4-0.2-2.7,0-3.9,0.6c-1.2,0.6-2,1.6-2.5,3c-0.6,1.5-0.5,2.9,0.1,4.3c0.6,1.4,1.6,2.4,3.1,3   c1.3,0.5,2.5,0.5,3.5-0.1c1-0.5,1.9-1.3,2.8-2.2l0.9-0.9c0.1-0.1,0.2-0.2,0.3-0.3c0.1-0.1,0.2-0.2,0.3-0.3c0.4-0.4,0.9-0.7,1.4-1   c0.5-0.3,1.1-0.3,1.7-0.1c0.8,0.3,1.3,0.8,1.6,1.6c0.3,0.7,0.3,1.5,0,2.2c-0.3,0.7-0.7,1.2-1.1,1.6c-0.5,0.3-1.1,0.5-1.8,0.7   l0.4,1.9c1-0.1,1.9-0.5,2.6-1.1c0.8-0.6,1.3-1.4,1.7-2.3c0.5-1.3,0.5-2.5,0.1-3.8C239.7,280.1,238.8,279.2,237.5,278.7    M230.3,249.4l-0.4,2l13.7,2.6l-17.1,11.2l18.6,3.5l0.4-2l-13.8-2.6l17.1-11.2L230.3,249.4 M230.9,238.9l1.9,0l0-7.4l7.1-0.1l0,7.2   l1.9,0l0-7.2l5.4,0l0,7.4l1.9,0l-0.1-9.4l-18.1,0.1L230.9,238.9 M230,220.1l18-2.3l-0.3-2l-18,2.3L230,220.1 M243.3,204.9   L243.3,204.9C243.3,204.9,243.3,204.9,243.3,204.9L243.3,204.9 M233.4,208.1c1.4-0.4,2.3-1.1,2.8-2.1c0.5-1,0.8-2.2,1-3.4l0.2-1.3   c0-0.1,0-0.2,0.1-0.4c0-0.1,0-0.3,0.1-0.4c0.1-0.6,0.3-1.1,0.6-1.6c0.3-0.5,0.7-0.9,1.3-1c0.8-0.2,1.5-0.1,2.2,0.4   c0.6,0.5,1.1,1.1,1.3,1.8c0.2,0.7,0.2,1.4,0,1.9c-0.2,0.5-0.6,1.1-1.1,1.6l1.4,1.3c0.7-0.7,1.2-1.5,1.5-2.4c0.3-0.9,0.3-1.9,0-2.8   c-0.3-1.3-1-2.3-2.1-3.1c-1.1-0.8-2.3-1-3.6-0.6c-1.3,0.3-2.1,1-2.5,1.9c-0.4,0.9-0.8,2-0.9,3.1l-0.2,1.2c0,0,0,0.1,0,0.1   c0,0,0,0.1,0,0.1c-0.2,0.9-0.4,1.7-0.7,2.4c-0.3,0.7-1,1.2-1.9,1.5c-1,0.3-1.9,0.1-2.7-0.5c-0.8-0.6-1.4-1.3-1.6-2.3   c-0.2-0.9-0.1-1.8,0.3-2.6c0.5-0.8,1.1-1.4,2-1.7l-1.1-1.8c-1.3,0.6-2.2,1.5-2.8,2.7c-0.6,1.2-0.7,2.5-0.3,3.9   c0.4,1.5,1.2,2.7,2.6,3.5C230.5,208.3,231.9,208.5,233.4,208.1 M235.5,179.1l0.3,0.7c0,0,0,0,0,0c0,0,0,0,0,0   c0.5,1.1,0.7,2.1,0.8,3.2c0.1,1-0.6,1.8-1.9,2.4c-1.2,0.5-2.2,0.5-2.9-0.1c-0.7-0.6-1.3-1.4-1.7-2.4l-0.5-1.2L235.5,179.1z    M228.4,183.7c0,0.1,0.1,0.2,0.1,0.3c0,0.1,0.1,0.2,0.1,0.3c0.3,0.6,0.6,1.2,1,1.7c0.4,0.5,0.9,1,1.5,1.3c0.6,0.3,1.3,0.5,2,0.5   c0.7,0,1.4-0.1,2.1-0.3c0,0,0.1,0,0.1,0c0,0,0.1,0,0.1,0c0.7-0.3,1.4-0.8,1.9-1.4c0.6-0.6,0.9-1.3,1.1-2.1c0.1-0.7,0.1-1.3,0-2   c-0.1-0.7-0.3-1.3-0.6-1.9c0-0.1-0.1-0.2-0.1-0.3c0-0.1-0.1-0.2-0.1-0.3l-1.1-2.7l-16.7,7l0.8,1.9l7.3-3.1L228.4,183.7 M229.8,164   l-15.7,9l1,1.7l15.7-9L229.8,164 M222,152l-1.2-1.6L206.1,161l4.1,5.7l1.5-1.1l-2.9-4.1L222,152 M1.2,157.9   C1.2,157.9,1.2,157.9,1.2,157.9l-0.4,0.5l-5.3-3.8l0.3-0.5c0.7-1,1.5-1.8,2.3-2.3c0.8-0.6,1.8-0.4,3.1,0.5c1.1,0.8,1.6,1.7,1.3,2.7   C2.3,156,1.9,156.9,1.2,157.9C1.2,157.9,1.2,157.9,1.2,157.9L1.2,157.9z M8.7,164.1l-6.4-4.7l0.3-0.4l9.7,0.2l1.4-2l-9.9-0.1   c0.7-1.2,0.9-2.4,0.7-3.6c-0.3-1.2-0.9-2.2-2.1-3c-1.7-1.2-3.2-1.4-4.5-0.7c-1.3,0.7-2.5,1.8-3.5,3.2l-1.5,2.1l14.7,10.6L8.7,164.1    M3.4,172l-1.6-0.9l-3.5,6.5l-6.2-3.4l3.4-6.3l-1.7-0.9l-3.4,6.3l-4.7-2.6l3.5-6.5l-1.6-0.9l-4.5,8.2l15.9,8.7L3.4,172    M-21.1,185.5l15.1,5.9l0.7-1.9l-15.1-5.9l1.6-4.1l-1.7-0.7l-3.9,10.1l1.7,0.7L-21.1,185.5 M-17.9,206.8l-6.3-4.7l7.8-1.2   L-17.9,206.8z M-11.8,211.4l-4.5-3.4l1.9-7.5l5.5-0.8l0.5-2.2l-20.4,3.4l16.4,12.7L-11.8,211.4 M-14.3,235.7l0.2-2.1l-12-3.2l0-0.1   l13.4-4.8l-12.5-6.8l0,0l12.4-1.4l0.2-2.1l-19.4,2.2l14.7,7.7l-15.7,5.4L-14.3,235.7 M-26.6,255.3l6.7-4.1l0.9,6.1L-26.6,255.3z    M-11.6,259.1l-5.4-1.4l-1.2-7.6l4.8-2.9l-0.3-2.2l-17.5,10.9l20,5.4L-11.6,259.1 M-3.7,284.8l-0.7-2l-12.3,1.8l0,0l10.4-9.8   l-14.2-1.2l0-0.1l10.8-6.2l-0.7-2l-16.9,9.8l16.5,1.3L-23,287.6L-3.7,284.8 M-1.8,288.1l-1.7,0.9l2.3,4.4l-14.4,7.6l0.9,1.8l16-8.4   L-1.8,288.1 M-2.7,314.2l4.1-6.7l3.6,5L-2.7,314.2z M12.4,310.9L7,312.1l-4.5-6.3l2.9-4.7l-1.3-1.8l-10.7,17.7l20.3-4.2L12.4,310.9    M76.8,187.2c-0.4-0.1-0.7,0.1-0.7,0.1s-0.5,0.3-0.6,0.5c-0.1,0.3,0.1,0.6,0.3,0.8c0.2,0.2,0.6,0.3,1.1,0.4   c0.5,0.1,0.8-0.4,0.9-0.6c0.1-0.2-0.2-0.7-0.3-0.8C77.4,187.4,77.2,187.3,76.8,187.2 M139.7,185.1c0-0.3-0.5-0.7-0.7-0.8   c-0.2-0.1-0.5-0.2-1-0.1c-0.4,0.1-0.8,0.4-0.8,0.4s-0.5,0.5-0.5,0.9c0,0.3,0.4,0.7,0.8,0.8c0.3,0.2,0.8,0.1,1.4-0.1   C139.4,186.1,139.7,185.4,139.7,185.1 M163,225.3c0.4,0.1,0.8-0.3,0.8-0.5c0.1-0.2-0.2-0.6-0.3-0.7c-0.1-0.2-0.3-0.3-0.6-0.3   c-0.3-0.1-0.6,0.1-0.6,0.1s-0.5,0.2-0.6,0.5c-0.1,0.2,0.1,0.6,0.3,0.7C162.3,225.2,162.6,225.2,163,225.3 M147.1,186.3   c0.6,0.1,1.1-0.5,1.1-0.7c0.1-0.3-0.2-0.8-0.4-1c-0.1-0.2-0.4-0.4-0.8-0.5c-0.4-0.1-0.9,0.1-0.9,0.1s-0.6,0.3-0.8,0.6   c-0.1,0.3,0.1,0.8,0.4,1C146,186.2,146.5,186.3,147.1,186.3 M69.9,190.4c-0.4-0.3-0.8,0.1-0.8,0.1s-0.2,0.3-0.2,0.7   c0,0.4,0,1.1,1.7,1.5c0.6,0.2,1,0,1.2-0.5C72.2,191,70.7,191,69.9,190.4 M70.1,185.2c0.5,0.1,0.9-0.3,1-0.5   c0.1-0.2-0.1-0.7-0.2-0.9c-0.1-0.2-0.3-0.3-0.6-0.5c-0.3-0.1-0.7,0-0.7,0s-0.6,0.2-0.7,0.4c-0.1,0.2,0,0.6,0.2,0.9   C69.3,185,69.7,185.1,70.1,185.2 M71,188.9c0,0,0.6,0.3,0.6,0.3c0,0,0.3,0.2,0.4,0.2c0.3-0.1,0.4-0.4,0.5-0.6c0,0,0.8-1.4,1.4-2.4   c0.3-0.6,0.8-1.2,1.9-0.9c0.3,0.1,1,0.3,1.4,0.5c0-0.1,0.1-0.1,0.1-0.2c0.1-0.1,0.1-0.2,0.2-0.3c0,0,0.1-0.1,0.1-0.2   c0.1-0.2,0.1-0.3,0.2-0.5c-0.1-0.1-0.1-0.2-0.1-0.3c-0.1-0.1-0.2-0.2-0.3-0.3c-0.2-0.1-0.4-0.1-0.6-0.2c-1.6-0.7-3.3-0.1-4.2,1.5   c-0.4,0.8-1.3,2-1.6,2.5C70.9,188.3,70.7,188.7,71,188.9 M187,355.7l0-7l-6.6,0V331c30.2-22.5,48.2-58.3,48.2-96s-18-73.5-48.2-96   v-12.3h4.5V125h-4.5v-11.4h-1.8v7.2l-22-12V98.6h-1.4v10.3l-22.9,10.4v-12.6h2.1v-6.5h-3.5c-2.4-5.2-8-9.1-14.9-10.8   c76.4,3.9,137.5,67.3,137.5,144.7C253.4,285,226.9,329.9,187,355.7L187,355.7z M185.2,355.6h-15.3v-5.2h15.3L185.2,355.6z    M154.4,371.4c2-2.2,6.4-7.1,6.8-7.7c1.1-1.5,1.5-4-0.7-6.3h23.9C175,363.1,165,367.9,154.4,371.4L154.4,371.4z M153,364.2   c-0.9-0.7-1.9-1.1-2.9-1.1l5.4-5.7h1.8c0.6,0.2,1.2,0.5,1.9,1.2c1.7,1.8,1.1,3.3,0.6,4.1c-0.2,0.3-2.5,2.9-4.8,5.4   C155,366.6,154.2,365.2,153,364.2L153,364.2z M152,371.3c-1.1,1.1-2.7,1.9-4.1,1.9c-1.9,0-4.9-1.1-7.7-2.1   c-0.8-0.3-1.5-0.6-2.3-0.8l4.9-5.3c0.2-0.2,2-2.2,1.9-4.1c0-0.7-0.3-1.4-0.9-1.9c-0.6-0.6-1.3-1.1-1.9-1.5h11.2l-6.2,6.6   c-0.6,0.4-1.1,1-1.4,1.8c-0.1,0.4-0.2,0.8-0.2,1.1c0.6-0.1,1.2-0.1,1.8,0c0-0.2,0.1-0.3,0.1-0.5c0.3-0.7,1-1.3,1.8-1.4   c1-0.2,2,0.1,2.8,0.7c0.8,0.7,1.3,1.6,1.4,2.6C153.3,369.6,152.6,370.7,152,371.3L152,371.3z M109.2,378.9c2-3.1,4.7-7.1,5.5-8.2   c2.1-0.8,8.4-1.1,9.5-1.1c5.4-0.1,8.9,0.8,12.1,1.9l0.7,0.2c0.9,0.3,1.8,0.6,2.7,1c1.7,0.6,3.4,1.2,4.9,1.7   C133.3,377.3,121.4,378.8,109.2,378.9L109.2,378.9z M108,377.6c-5-8.8-5-8.8-5.7-8.9c-1-0.1-1.9-0.3-2.9-0.4v-3.1h4.2l0-1.7h-4.2   v-6.3h18.9c-1.2,1.1-2.6,2.4-2.8,2.7c-1.5,1.7-1.5,3.5-0.1,4.9c1,1,2.4,2.4,3.4,3.4c-1.4,0.2-3,0.4-4.6,0.6   C113.7,369,113.6,369,108,377.6L108,377.6z M72.6,374.4c1.6-0.4,3.4-1.1,5.1-1.7c0.9-0.3,1.8-0.7,2.7-1l0.7-0.2   c3.2-1.1,5.7-1.9,11.1-1.8c2.3,0.1,5.8,0.2,9.6,0.8c0.7,1.1,3.1,5.3,4.8,8.4C94.9,378.7,83.5,377.2,72.6,374.4L72.6,374.4z    M65.4,371.3c-0.6-0.6-1.3-1.7-1.3-3c0-1,0.5-2,1.4-2.6c0.8-0.6,1.8-0.9,2.8-0.7c0.9,0.1,1.5,0.7,1.8,1.4c0.1,0.2,0.1,0.3,0.1,0.5   c0.6,0,1.2,0,1.8,0.1c0-0.4-0.1-0.8-0.2-1.2c-0.3-0.7-0.8-1.3-1.4-1.8l-6.1-6.6h14.9l-3.7,3.5l1.2,1.3l5.1-4.8h0.1v12   c-0.4,0.1-0.9,0.3-1.3,0.4l-0.7,0.2c-0.9,0.3-1.8,0.6-2.8,1c-2.8,1-5.7,2.1-7.7,2.1C68.1,373.1,66.5,372.4,65.4,371.3L65.4,371.3z    M62.4,368.1c-2.3-2.5-4.5-5.1-4.8-5.4c-0.5-0.7-1.2-2.3,0.5-4.1c0.7-0.7,1.3-1,1.9-1.2h1.7l5.5,5.7c-1,0.1-2,0.4-2.9,1.1   C63.2,365.2,62.5,366.6,62.4,368.1L62.4,368.1z M32.6,357.4h24.3c-2.2,2.3-1.8,4.8-0.7,6.3c0.4,0.6,5.1,5.8,7,7.9   C52.4,368,42.1,363.3,32.6,357.4L32.6,357.4z M31.6,350.4l15.3,0l0,5.2H31.6L31.6,350.4z M28.3,193.1l-2.6-4.8l2.6-5.9l2.9,6.1   L28.3,193.1z M35.4,162.6v110.3h-6.2v-77.8l4-6.4l-4.9-10.5l-4.5,10.2l3.5,6.4l0,0l0.2,0.2v77.8H16.8l0.1-66.1h6.4V205h-6.4l0-20.1   H20v-1.8h-3.1l0-4.8H20v-1.8h-3.1l0-4.2h1.9v-1.8h-1.9v-1.9h-2.1v1.9h-2.1v1.8h2.1l0,4.2h-3.3v1.8h3.3l0,4.8h-3.3v1.8h3.3l0,20.1   H8.9v1.8h5.9l0,43.2H4.6v-32.8h4.3v-1.8H4.6v-16.5c-0.7,0-1.4,0-2.1,0v16.6h-4.3v1.8h4.3V250H-8.1c-0.6-4.9-1-9.9-1-15   c0-36.1,16.2-69.6,44.4-92.2v18h-4.9v1.8L35.4,162.6z M30.6,302.7c0.8-1.3,0.8-3.1-0.1-4.6c-0.9-1.6-2.6-2.5-4.6-2.5   c-1.4,0-2.5,0.3-3.5,0.7c0.6-3.6-0.2-8.1-2.7-9.8c-1.4-1-3.1-1.4-4.5-1c-1.3,0.3-2.3,1.1-2.9,2.4c-0.7,1.3-0.6,2.8,0.1,4   c0.7,1.1,2,1.8,3.3,1.8c0,0,0,0,0,0l0-1.8c-0.8-0.1-1.5-0.3-1.9-1c-0.4-0.7-0.4-1.5,0-2.3c0.4-0.8,1-1.3,1.7-1.5   c1-0.2,2.1,0.1,3.1,0.7c2.3,1.6,2.9,7.7,1.1,10.8c0,0-1,1.7-1,4.4c0,1.6,1.6,7.5,8.4,7.5c0,0,0.1,0,0.1,0c2.6,0,4.9-1,6.7-2.8   c0.5-0.5,0.9-1,1.3-1.6v20.8c-24-19.1-39.2-45.5-43.2-75.4h0.4c0.1,0.1,11.9,9.9,12.8,10.8c0.8,0.7,1.7,1.6,1.8,4.2   c0,1.2-0.6,2.1-1.1,2.6c-1,1-2.4,1.3-3.3,1.3c-0.9,0-3.4-0.3-3.5-2.8c0-0.9,0.4-1.6,0.8-2c0.3-0.3,0.8-0.5,1.4-0.4   c1.1,0.1,1.4,1.3,1.4,1.5l1.8,0c0-1.3-1-3.2-3.1-3.3c-1.1,0-2,0.3-2.7,1c-0.8,0.8-1.3,2-1.3,3.3c0.1,3.4,3.3,4.5,5.3,4.5   c1.5,0,3.3-0.6,4.5-1.8c1.1-1.1,1.6-2.4,1.6-3.9c0-3.2-1.2-4.4-2.3-5.5c-0.8-0.7-7.7-6.6-11-9.5h19.2l0,21.1H9.5v1.8h25.9V296   l-14.6-16H9.5v1.8H20l15.4,16.9v1.4c0.2,3-1,5.1-2.5,6.6c-1,1-2.8,2.3-5.5,2.3c0,0,0,0-0.1,0c-6.2-0.1-6.7-5.7-6.7-5.8   c0-1.1,0.1-3.1,1.4-4.4c0.9-0.9,2.2-1.4,4-1.4c1.9,0,2.7,1,3.1,1.6c0.5,0.9,0.5,2,0.1,2.8c-0.4,0.7-1.3,1.1-2.2,1.1l0,1.8   C28.5,304.7,29.9,304,30.6,302.7L30.6,302.7z M-36.4,234c0-76.8,60.1-139.8,135.8-144.6c-6.7,1.8-12.1,5.6-14.5,10.7h-3.6v6.5h2.2   v12.7l-22.9-10.5V98.6h-1.4v10.2l-22.1,12.1v-7.3h-1.8l0,11.4H31v1.8h4.3v13.9C6,163.4-10.8,197.9-10.8,235   c0,37.2,16.8,71.6,46.2,94.4v19.2l-5.6,0l0,7C-10,329.8-36.4,284.9-36.4,234L-36.4,234z M106.9,94.6h-3v1.8h3v3.8h-20   c3.2-5.8,11.1-9.7,20-10V94.6z M152.2,139.2c-2.7-3.6-7.1-7-8.6-8v-7h-1.8v7.1c-1.5,1.1-5.9,4.3-9.5,7.7v-12.4h4.5V125h-4.5v-3.7   l20-9.1V139.2z M167,182.8c0,4.3-1.3,8.5-3.7,12c-0.8,0.3-2,0.5-3,0.2c-5.5-1.8-4.2-8.5-3.5-11.6l0.1-0.6c0.5-2.6-0.4-6-2.3-8.5   c-1.3-1.6-2.9-2.6-4.4-2.7c-3.9-0.2-5.5,1.3-6.8,2.5l-0.2,0.1c-1.1-1.3-3.4-3.8-8.1-1.8c-4.4,1.8-4.9,8.4-4.7,10.6   c0.1,0.9-0.3,1.5-0.8,2.3c-0.6,0.9-1.3,2.1-1.4,3.9c-0.1,1.7,0.8,3.2,1.6,4.5c0.8,1.3,1.3,2.2,0.9,2.7c-0.6,0.9-1.2,0.9-2.3,0.7   c-2.6-3.3-4.1-8.5-4.1-14.4c0-11.8,9.6-21.3,21.3-21.3C157.4,161.5,167,171,167,182.8L167,182.8z M157.2,160.9h-3.1v-49.6l1.8-0.8   l1.2,0.7V160.9z M178.6,162.6v2.2c-3,1.6-7.9,3.1-14.4,4.4c-2-2.7-4.5-4.9-7.4-6.5H178.6z M178.6,125h-4.1v1.8h4.1v10.9   c-3.4-3.1-7.2-5.3-8.6-6.3v-7.1h-1.8v7c-1.5,1.1-6.5,4.9-9.1,8.7v-27.8l19.5,10.6V125z M178.6,160.9h-19.5v-16.8   c0-3.4,6.7-9.1,9.9-11.4c1.5,1.1,6.1,3.9,9.6,7.2V160.9z M182.8,238.2c0,2.3-0.5,4.2-0.9,5.9c-2.6-1.3-6-3.2-6.7-4.1   c-0.3-0.4,0.1-1.8,0.4-2.8c0.5-1.9,1-3.8,0-5.1c-1.8-2.1-3.6-2.7-5.1-2.7c0.8-1.5,1.3-3.1,1.3-4.8c0-5.4-4.4-9.8-9.8-9.8   c-5.4,0-9.8,4.4-9.8,9.8c0,3.1,1.6,6.1,4.1,7.9c-0.5,0.8-0.9,1.7-1,2.4c-0.3,1.9-0.7,5-2,6.2c-0.5,0.4-1.1,0.8-1.7,1.2   c-0.2,0.2-0.8,0.4-1,0.6c-0.1,0.3,0,0.4,0.2,0.6c0.1,0.1,0,0,0,0c0.1,0.1,0.3,0.3,0.7,0.5c2,1.1,6.7,2.4,10.7,2.6   c-0.2,1.1-0.7,2.9-1.6,5.6c-2.2,6.7-6,13.2-8.8,17.1c-2.9,3.9-4.9,5.7-7,7.5l-0.8,0.7c-2.5,2.2-4.2,3.9-7.3,7.2   c-1.3,1.4-2.3,3.1-3.3,4.7c-1.3,2.2-2.6,4.3-4.4,5.4c-5.9,3.5-7.5,8.4-8,10.7c-1.2-1.2-2.9-3.1-4-4.6c-1.6-2.2-1.6-8.6-0.7-13.8   c0.4-2.6,0.7-5.4,1-8.5c3-1.5,4.9-6.8,6.2-11.3c0.9-3.1,3.5-6.9,5.1-7.9c1.9-1.2,6.4-6.5,9.1-10.2c2.3-3.3,4-8.6,4.5-10.2   c2.6,0.1,5.6-0.3,7.9-2.5c1.6-1.6,2.3-2.9,1.9-4.2c-0.4-1.5-2.3-2.6-5.8-3.3c-0.9-0.2-1.6-0.4-2.2-0.5c0.4-0.2,0.8-0.3,1.3-0.5   c1.8-0.8,2.6-0.9,3.7-0.9l0.1-1.8c-1.5-0.1-2.6,0.2-4.4,1c-2.2,0.8-3.8,1.6-4.1,1.7c-0.3,0.1-0.6,0.2-1,0.4   c-1.4,0.6-3.8,1.6-8.6,0.9c1.9-2.2,4.9-5.7,6.2-6.5c1.3-0.9,6.1-2.3,8.9-3.2c1-0.3,1.9-0.6,2.4-0.8c2.4-0.8,5.9-3.6,7.3-5.8   c1.1-1.7,5.4-4.1,8.5-4.5c2.1-0.2,3.2,0.2,3.6,0.4c1.6,6.1,5.7,10.7,7.5,12.8c0.4,0.4,0.8,0.9,0.8,1l0.3,0.4   C181.7,231.6,182.8,236,182.8,238.2L182.8,238.2z M187.6,193.1l-2.6-4.8l2.6-5.9l2.9,6.1L187.6,193.1z M180.4,306.2   c0.4,0.6,0.9,1.2,1.4,1.7c1.8,1.8,4.2,2.8,6.7,2.8c0,0,0.1,0,0.1,0c6.9-0.1,8.4-5.9,8.4-7.5c0-0.9-0.1-1.9-0.4-3   c0,0-0.6-1.4-0.6-1.4c-1.8-3.1-1.2-9.2,1.1-10.8c1-0.7,2.1-1,3.1-0.7c0.8,0.2,1.3,0.7,1.7,1.5c0.4,0.8,0.4,1.6,0,2.3   c-0.4,0.6-1.1,1.1-1.9,1l0,1.8c0,0,0,0,0,0c1.4,0,2.6-0.7,3.3-1.8c0.7-1.2,0.8-2.7,0.1-4c-0.6-1.2-1.6-2.1-2.9-2.4   c-1.5-0.4-3.1,0-4.5,1c-2.5,1.8-3.3,6.2-2.7,9.8c-1-0.5-2.2-0.7-3.5-0.7c-2,0-3.7,0.9-4.6,2.5c-0.8,1.4-0.9,3.2-0.1,4.6   c0.7,1.3,2.1,2,3.7,2c0,0,0,0,0.1,0l0-1.8c-1.1,0-1.8-0.4-2.2-1.1c-0.5-0.8-0.4-1.9,0.1-2.8c0.3-0.6,1.2-1.6,3.1-1.6   c1.7,0,3.1,0.5,4,1.4c1.3,1.3,1.4,3.3,1.4,4.4c0,0.1-0.5,5.8-6.7,5.8c0,0,0,0-0.1,0c-2.6,0-4.4-1.2-5.5-2.3   c-1.8-1.8-2.6-3.6-2.6-6.1v-1.9l15.4-16.9h10.4V280H195l-14.6,16v-21.4h25.9v-1.8h-4.8l0-21.1l20.2,0c-3.8,2.8-11.6,8.8-12.3,9.5   c-1.2,1.1-2.3,2.4-2.3,5.5c0,1.5,0.6,2.8,1.6,3.9c1.2,1.2,3,2,4.5,2c1.9,0,5.2-1.3,5.3-4.7c0-1.4-0.5-2.6-1.3-3.3   c-0.7-0.7-1.6-1-2.7-1c-2.1,0.1-3,2-3,3.3l1.8,0c0-0.2,0.2-1.5,1.3-1.5c0.6,0,1.1,0.1,1.4,0.4c0.4,0.4,0.8,1.2,0.8,2   c-0.1,2.5-2.6,3-3.5,3c-0.9,0-2.3-0.4-3.3-1.5c-0.5-0.5-1.1-1.4-1.1-2.6c0-2.6,0.9-3.5,1.8-4.2c0.8-0.8,14.3-10.8,14.3-10.8h0.8   c-4.4,30.3-20.6,58.2-45.2,77L180.4,306.2z M186.6,266.7v6.2h-6.2v-4.4C181.9,268.5,184.8,268.1,186.6,266.7L186.6,266.7z    M170.9,245c2.5-0.9,4.4-2,4.9-2.3c1.8,1.2,4.2,2.4,5.5,3.1c-0.1,0.2-0.1,0.4-0.2,0.5c-0.4,1.2-0.7,2.1-0.7,2.9   c0,4.6,2.3,7.8,4.2,10.3c1.1,1.5,2,2.8,2,3.9c0,0.7-0.2,1.3-0.7,1.8c-1.3,1.2-3.9,1.6-5.5,1.7v-0.4   C180.2,261.8,178.8,254.6,170.9,245L170.9,245z M162.3,353.9c0.6-1.1,0.6-2.3,0-3.6c-0.7-1.7-1.5-3-2.2-4.2c-0.2-0.3-0.4-0.6-0.6-1   h12.6l0,3.5h-4.1v7h-7.5C161.3,355.2,161.9,354.6,162.3,353.9L162.3,353.9z M151.5,335.9c0.4-0.1,0.7-0.3,1-0.6   c1-0.9,1.5-1.7,1.9-2.4c0.5-0.8,0.7-1.3,1.6-1.7c1.5-0.2,2.6-0.1,3.7,0.1c0.1,0,0.2,0,0.3,0c-1,2.4-3.4,8.3-3.4,10.6   c0,0.6,0.2,1.2,0.4,1.8h-4.2c0-1.3-0.1-2.6-0.3-3.8C152.4,338.2,151.9,336.8,151.5,335.9L151.5,335.9z M124.1,355.6   c1.5-0.9,3.3-2,4.5-2.7c1.9-1.1,3.4-1.8,4.6-2c0.2,0,5.6-1,6-4.2c0.1-0.5,0-1,0-1.5h12c0,0.3,0,0.6,0,0.9c0,1.2,0,2.3,0.1,3   c0,0.5,0,1.2,0,2c-0.1,1.8-0.1,3.6,0.6,4.6L124.1,355.6z M126.4,365.2c2-2.3,1.2-4.1,0.2-5.1c-0.8-0.9-2.1-1.9-3.3-2.7h13.6   l-1.8,1.7c-0.1,0.1-1.1,1.2-1,2.5c0,0.5,0.3,1.3,1.1,1.9c1.7,1.3,2.2,1.7,2.2,1.7l1.1-1.4c0,0-0.5-0.4-2.3-1.8   c-0.3-0.3-0.4-0.5-0.4-0.6c0-0.5,0.4-1,0.5-1.2l2.9-2.8c0.8,0.5,2.3,1.4,3.5,2.6c0.2,0.1,0.6,0.6,0,1.9c-0.4,0.9-1.1,1.6-1.1,1.6   l-5.4,5.9c-3.1-1-5.8-1.8-11-1.7c-0.6,0-1.2,0-1.9,0.1C124.5,366.9,126,365.7,126.4,365.2L126.4,365.2z M120.6,357.7   c1.1,0.7,3.6,2.4,4.7,3.6c0.8,0.9,0.7,1.6-0.3,2.8c-0.4,0.5-2.7,2.3-4.3,3.7c-1-0.9-2.9-2.9-4.1-4c-0.3-0.3-1.1-1.1,0.2-2.5   C117.1,360.9,119.1,359.1,120.6,357.7L120.6,357.7z M41.3,249.6c0-0.8,0.4-2.8,0.8-4.5c0.4-1.9,0.8-3.7,0.9-4.8   c0-0.5,0.1-1.2,0.2-1.8c0.3-2,0.6-4.5-0.2-7.3c-0.6-2-1.7-7.3-1.6-10.7c0-2.5,0.7-7.7,0.7-7.7c1.3,0.1,4.9,0.5,6.4,1.2   c1.6,0.8,3.5,3.2,5.4,6.6c1.8,3.3,0.2,9.4-0.3,11.1c-1,3.6,0.4,7,1.6,9.3c0.3,0.6,0.6,1.1,0.9,1.6c1,1.7,1.9,3.1,1.5,5.8   c-0.5,3.1-0.2,4.6,0.4,8.1c0.2,1,0.4,2.2,0.6,3.7c1,6.2-1,10.1-2.4,12.9c0,0.1,0,0.1-0.1,0.2c-0.2-2-0.9-3.9-2.4-4.8   c-2.2-1-4.2-1-5.6,0.1c-0.5-1.6-0.1-3.3,0.3-4.9c0.5-2,0.9-4.1-0.5-5.7c-0.4-0.5-1-0.8-1.6-1.2c-0.6-0.4-3.7-2.3-4.3-4   C41.6,251.8,41.3,250.7,41.3,249.6L41.3,249.6z M47.2,180.4c-0.1,0.8-0.1,1.6-0.1,2.5c0,5.2,1.7,10,4.8,14.1   c-2.8,1.9-6.9,5-10.1,9.7c-2.1,2.8-2.3,13.7-2.3,13.8c-0.1,3.6,1.1,9.1,1.7,11.2c0.7,2.4,0.4,4.7,0.2,6.6c-0.1,0.7-0.2,1.4-0.2,2   c0,0.9-0.4,2.7-0.8,4.5c-0.5,2-0.9,3.9-0.8,5c0.1,2.4,1.2,4.5,2.1,5.9v93l-4.4,0V177.2C39.1,178.2,42,179.3,47.2,180.4L47.2,180.4z    M50.3,171c-1.4,2.3-2.3,4.8-2.8,7.4c-5.8-1.1-8.5-2.4-10.3-3.4v-8C40.2,168.5,44.6,169.9,50.3,171L50.3,171z M61.6,160.9h-3.1   v-49.8l1.2-0.7l1.8,0.8V160.9z M70.2,161.5c11.8,0,21.3,9.6,21.3,21.3c0,6.6-3.1,12.9-8.4,17l-6.9-3.8c0.5-0.4,1.2-1,1.2-1   c0.1,0,0.2,0.1,0.3,0.1c1.4,0.4,5,1.6,7.2-0.7c1.8-1.9,1.5-4,1.3-5.5c-0.1-0.9-0.2-1.7,0.1-2.2c0.7-1.2,1.2-3.3,0.6-5   c-0.3-1-0.9-1.6-1.8-2c-0.9-0.4-1.2-0.7-1.5-1.1c-0.2-0.3-0.4-0.5-0.8-0.8c-0.2-0.2-0.5-0.9-0.7-1.5c-0.5-1.2-1.1-2.6-2.1-3.2   c-1.2-0.6-2.4-0.1-3.2,0.3c-0.3,0.1-0.8,0.3-0.8,0.3c-0.1-0.1-0.2-0.3-0.3-0.5c-0.5-0.8-1.4-2.1-3.4-1.9c-1.3,0.1-2.1,0.7-2.8,1.3   c-0.3,0.3-0.7,0.5-1,0.7c-0.4,0.2-1.5,0.3-2.4,0.3c-1.6,0.1-3.1,0.2-3.9,0.9c-1.1,0.9-1.5,2.5-1.9,3.8c-0.1,0.4-0.2,0.8-0.4,1.1   c-0.2,0.5-0.7,0.7-1.2,1c-0.7,0.4-1.7,1-1.8,2.3c-0.1,1.5,1.5,2.5,3.1,3.4c0.7,0.5,2.2,1.6,2.2,1.6c1.3,1.3,1.9,1.9,1.5,4.2   c-0.2,1.5-1.2,1.6-2.8,1.7c-0.4,0-5,0.5-7.1,1.8c-0.1,0.1-0.3,0.2-0.4,0.2c-3-3.8-4.5-8.3-4.5-13.1C48.8,171,58.4,161.5,70.2,161.5   L70.2,161.5z M73.2,132.7c1.6,1.1,10.1,7.5,10.3,10.7v17.5h-6.2c-2.3-0.7-4.7-1.2-7.2-1.2c-2.3,0-4.5,0.3-6.6,1V144   C64,140.4,70.4,134.8,73.2,132.7L73.2,132.7z M83.5,125H79v1.8h4.5v12.6c-3.4-4-7.2-6.8-9.3-8v-7.1h-1.8v7   c-1.5,1.1-6.2,4.7-8.8,8.3v-27.4l20,9.1V125z M104.6,162.6c-0.1,0.2-0.2,0.4-0.3,0.6c-0.2,0.5-0.3,1-0.3,1.5c0,0.5,0.1,1,0.3,1.5   c0.2,0.4,0.4,0.7,0.7,1c0,0,0.8,0.8,1.4,1c-3.8,1.8-9.3,3.3-15.5,4.2c-2.1-4.2-5.4-7.6-9.4-9.9L104.6,162.6z M107.9,162.6   c1.2,0,2.1,1,2.1,2.1c0,1.2-0.9,2.1-2.1,2.1c-1.2,0-2.1-1-2.1-2.1C105.8,163.6,106.7,162.6,107.9,162.6L107.9,162.6z M111.1,155.1   c0,0.1,0,0.1,0,0.2c0.1,2.1,1.7,3.5,4,3.5h0c1.3,0,2.4-0.5,3.3-1.4c0.9-1,1.3-2.2,1.2-3.5c-0.2-2.5-2-4.5-4.6-5h0   c0-3.3-2.5-6.1-5.6-6.1v1.8c2.1,0,3.7,1.8,3.8,4.1c-2.4,0.1-4.4,1.3-5.5,3.3c-1.1-1.9-3-3.2-5.5-3.3c0.1-2.3,1.8-4.1,3.8-4.1v-1.8   c-3.1,0-5.6,2.7-5.6,6.1h0.1c-2.5,0.6-4.4,2.5-4.6,5c-0.1,1.3,0.4,2.6,1.2,3.5c0.9,0.9,2,1.4,3.3,1.5h0c2.3,0,3.9-1.5,4-3.5   c0-0.1,0-0.1,0-0.1h-1.8c0,0,0,0,0,0c-0.1,1.3-1.2,1.9-2.3,1.9c-0.8,0-1.5-0.3-2-0.9c-0.5-0.6-0.8-1.4-0.8-2.2   c0.2-2.1,2-3.6,4.3-3.6h0c2.8,0,4.8,2.1,4.8,5v5.5H90.3c1.2-9.5,14.2-29.8,17.5-34.8c3.3,5.2,16.6,26.1,17.9,34.8h-16.9v-5.5h0   c0-2.9,2-4.9,4.8-5h0c2.3,0,4.2,1.5,4.3,3.6c0.1,0.8-0.2,1.6-0.8,2.2c-0.5,0.6-1.2,0.9-2,0.9h0c-1.2,0-2.1-0.7-2.2-1.9c0,0,0,0,0,0   L111.1,155.1z M122.5,182.5c-5.3-1-10.1-2.4-14.5-4.4l0,0c0,0-0.1,0-0.2,0c0,0-0.1,0-0.1,0l0,0c-3.8,1.7-8.8,3.2-14.5,4.3   c-0.1-2.9-0.6-5.6-1.7-8.2c6.8-1,12.4-2.7,16.3-4.8c3.9,2.1,9.6,3.8,16.3,4.8C123.2,176.8,122.6,179.6,122.5,182.5L122.5,182.5z    M125,197.2c-1.9,0.9-1.5,3.5-1.1,4.7c-1.6,1.2-6.4,5.2-6.8,9.3c-0.9,9.1-5.6,15.2-7.9,17.2c-2,1.7-3.7,5.6-3.4,8   c0.1,1.2,0.5,2.3,1,3.4l-0.2-0.1c-0.4,0.5-0.7,1.3-1.1,2.3c-0.5-0.7-1.2-1.5-2-2.1l-4.8-20.6l-2,0.5c-1.3-1.6-6-7.7-6.9-9.1   c-0.4-0.6-0.5-1.4-0.6-2.3c-0.2-1.2-0.3-2.4-1.3-3.2c-0.8-0.6-2.2-3.2-3-4.7c4.9-4.1,7.9-10,8.2-16.3c5.7-1.1,10.7-2.5,14.7-4.2   c4.5,2,9.3,3.4,14.7,4.4c0.2,5,1.4,9.4,3.5,12.7C125.7,197,125.4,197,125,197.2L125,197.2z M147.1,177.4c1.2,0.7,2,2.4,2.5,3.9   c-2.6-0.4-5.3,0.5-5.8,0.8l0.8,1.6c0.4-0.2,3.1-1.1,5.4-0.5c0,0,0.1,0.1,0.1,0.3c0.2,2,0.5,7-0.1,9.5c-0.8,2.9,0.6,6.3,3,7.6   c-0.8,0.7-1.8,1.7-2.5,3.3c-0.8,1.9-1,3.5-1.1,5c-0.1,0.5-0.1,1-0.2,1.5c0-0.1-0.1-0.2-0.1-0.3c-0.5-1-1.4-3.2-1.8-4.7   c-0.4-1.3-0.7-3.6-0.8-5.3c-0.1-1.1,0.5-2.7,0.8-3.2l0.5-1l-1-0.3c-0.1,0-3.2-0.8-5.7-0.5c-1.4,0.2-2.6,0.7-3.3,1.1   c-0.1-1.1-0.3-2.3-0.6-2.8c-0.4-0.7-1.2-2.8-1.3-4.6c-0.1-1,0.1-3.7,0.3-5.6l0,0c0,0,0.5-0.3,1.8-0.3c1,0,2.3,0.3,2.8,1   c0.1,0.2,0.3,0.5,0.1,1.1c-0.7,2.3-1.7,4.9-2.1,5.5l-0.4,0.6l0.8,1.2l0.7-0.3c1.6-0.7,2.7-0.8,3.4-0.8c1.5,0.1,3.8,1.1,4.5,1.6   l0.9-1.5c-0.1-0.1-3.1-1.7-5.3-1.8c-0.7,0-1.4,0.1-2.2,0.3c0.7-1.8,1.4-4.1,1.4-4.1c0.4-1.3,0-2.2-0.4-2.7   c-0.9-1.2-2.9-1.7-4.2-1.7c-0.6,0-1.1,0.1-1.5,0.1c0,0,0,0,0-0.1c0.2-1.2,0.7-2.6,2.6-4.1C140.4,175.7,144.6,175.9,147.1,177.4   L147.1,177.4z M150.7,211.3c0.2-0.8,0.3-1.5,0.4-2.3c0.2-1.4,0.3-2.8,1-4.5c0.8-1.9,2.3-2.9,2.9-3.2c1.4,0.3,2.4-0.1,3.2-0.3   c0.8-0.3,1.1-0.3,1.6,0c0.4,0.2,0.9,0.6,1.4,1c2.4,1.8,4.5,3.3,6.2,3.4c0,0.2,0.1,0.4,0.1,0.7c0,0.3,0.1,0.5,0.1,0.7   c-0.8-0.2-1.9-0.3-3.4-0.1c-3.5,0.4-8.3,3-9.8,5.3c-1.1,1.8-4.1,4.1-6.1,4.9C149.4,214.9,150.4,212.5,150.7,211.3L150.7,211.3z    M128.4,228.5c-3.2-0.9-16.1,6.9-20.4,9.5c-0.2-0.6-0.4-1.2-0.4-1.8c-0.2-1.9,1.2-5.2,2.7-6.5c0.3-0.3,7.4-6.2,8.6-18.4   c0.3-3.5,5-7.2,6.3-8.2c0.9,0.3,2.1,0.6,3.7,0.9c1.8,0.3,3.1,0.1,4-0.3c1.1,0.2,2.7,0.7,3.1,1.3c0.4,0.8,0.6,2.6,0.8,4.1   c0.1,1,0.3,2.1,0.4,2.8c0.2,0.7,0.2,1.5,0.2,2.4c0.1,1.5,0.1,3,0.8,4.1c0.3,0.5,0.6,0.9,0.9,1.3c-1.3,0.5-2.3,0.9-2.9,1.3   c-1.7,1.1-5.9,6-7.2,7.6C128.8,228.6,128.6,228.6,128.4,228.5L128.4,228.5z M138.3,236.4c-5.3-1.2-9.7,1.2-13.1,3   c-0.3,0.2-0.7,0.4-1.2,0.6c-2.6,1.3-6.7,3.4-9.4,6.2c-1.4-1.1-4.2-3.6-5.8-6.6c7-4.4,17.2-9.9,19.2-9.4c7.2,1.9,10.7,0.3,12.4-0.4   c0.3-0.1,0.6-0.3,0.8-0.3c0.6-0.1,1,0,2,0.3c0.7,0.2,1.5,0.5,2.8,0.7c3.7,0.8,4.3,1.7,4.4,2c0.1,0.5-0.4,1.4-1.4,2.4   C145.7,238.1,140.7,237,138.3,236.4L138.3,236.4z M84.1,343.5c2.3-0.3,3.8,1.3,4.8,2.4c0.4,0.4,0.6,0.7,0.9,0.9   c0.4,0.3,1,0.5,1.6,0.8c2.1,0.9,3.6,1.6,3.3,3.1c-0.2,0.9-3.7,0.8-5.1,0.7c-0.5,0-0.9,0-1.2,0c-0.9,0-1.9-1.2-2.8-2.3   c-0.7-0.9-1.4-1.7-2.2-2.2c-0.5-0.3-1.1-1.1-1.8-2.4C82,344.1,82.7,343.7,84.1,343.5L84.1,343.5z M78.8,338.3   c0.4-9.7-0.9-16.9-1.3-18.7c0.6-2.5,1-4.9,1.1-7.7c0.1-1.6-0.4-3.1-0.8-4.6c-0.3-0.9-0.5-1.9-0.6-2.9c-0.2-1.2-0.6-2.5-1-3.8   c-0.4-1.3-0.8-2.7-1.2-4.4c2-1.4,3.4-3.8,4.7-6.2c1.6-3.1,3.7-13.6,3.7-14l0,0c1.4-1.9,2.4-4.6,3.2-7.2c0.5-1.5,1-3.1,1.7-4.5   c-0.6,2.8-1.2,6.9-1.3,12c-0.2,6.3,0.7,8,1.3,9.2c0.3,0.7,0.6,1.1,0.5,2.2c-0.1,1.4-1.1,2.9-2,4.3c-1.3,1.8-2.6,3.7-2.1,5.8   c0.2,1,0.6,2.2,1.1,3.5c1.2,3.4,2.8,8,1.9,11.3c-1.3,4.6-2.5,11.1-1.3,15.5c0.9,3.1,1.4,11.3,1.6,14.7c-1.1-0.8-2.5-1.3-4.3-1.1   c-1.5,0.2-2.5,0.6-3.2,1c0-0.1-0.1-0.2-0.2-0.2C79.7,341.2,78.8,339.8,78.8,338.3L78.8,338.3z M69.1,328c0.3-2.2,0.6-4,0.9-5.5   c0.8-4.3,1.1-6.5,0.5-9.4c-0.5-2.3-0.6-6.2-0.8-10.7c-0.1-2-0.2-4-0.3-6.1c0.9,0.7,1.7,1.2,2.4,1.2c0.1,0,0.1,0,0.2,0   c0.5-0.1,1-0.2,1.5-0.4c0.3,1.5,0.7,2.8,1.1,4.1c0.4,1.3,0.7,2.4,0.9,3.5c0.2,1.1,0.4,2.1,0.7,3.1c0.4,1.4,0.7,2.8,0.7,4.1   c-0.1,3.4-0.4,4.5-1.2,7.7c0,0.1,1.8,7.9,1.3,18.7c-0.1,2,1,3.7,1.9,5.2H68.5c0-0.1,0-0.1-0.1-0.2c-0.5-1.6-0.6-5.5-0.6-6.8   L69.1,328z M66,336.3c0,0.1,0,2.6,0.2,4.8c-0.4,0-1,0-1.6,0.1c-0.4,0.1-0.7,0.2-1.1,0.4c-0.1,0-0.2-0.1-0.3-0.1   c-0.3-0.3-1-1.1-1.4-1.7c-0.2-0.4-0.6-2.7-0.8-4.6c-0.3-1.8-0.5-3.9-0.9-5.6c-0.6-2.6-0.3-3.8,0-5.5c0.1-0.6,0.2-1.2,0.4-1.9   c0.4-2.7,0.2-9.1,0-11.9l0-0.8c0-0.6,0.1-2.5,0.2-4.9c0.2-4.1,0.5-9.7,0.3-12.8c0-1-0.1-1.9-0.1-2.6c0-1.8-0.1-3-0.3-4.8   c1.9,3.3,4.4,7,6.6,9.6c0.2,2.6,0.5,5.8,0.7,8.2c0.2,4.6,0.4,8.5,0.9,10.9c0.5,2.6,0.2,4.6-0.5,8.8c-0.3,1.5-0.6,3.3-0.9,5.6   L66,336.3z M65,342.9c0.3-0.1,0.5-0.1,0.8-0.1c0.3,0,0.6,0,0.7,0.1c0.1,0.3,0.1,0.6,0.2,0.9c0.7,2,0.5,5.8,0.1,6.4   c-0.4,0.6-3.8,1.9-5.2,1.1c-1.8-1-1.8-1.8-1.6-2.5C60.4,347.4,63.1,343.4,65,342.9L65,342.9z M45.1,282l3.4,2.9   c-1.5,4.1-1.2,9-0.2,12.8c0.5,1.9,0.2,2.8-0.6,4.7c-0.5,1.2-1,2.6-1.6,4.8c-1.1,4.6,2.5,7.8,5.1,9.2c-1.2,3.2-1.7,6.3-2.1,9   c-0.2,1-0.3,2-0.5,2.9c-0.6,2.9,0,5.6,1.6,8c2.9,4.2,8.5,6.1,11.4,6.9c-0.2,0.2-0.3,0.3-0.5,0.5H43.4V279   C43.6,280.4,44.5,281.5,45.1,282L45.1,282z M46.8,269.9c0.7,1.5,0.2,2.1-1,3.6c-0.6,0.7-1.3,1.5-1.8,2.6c-0.3,0.6-0.5,1.2-0.5,1.8   v-21l0-0.1c0.6,0.6,1.3,1.1,1.9,1.4c0.5,0.3,1,0.6,1.3,0.9c0.8,0.9,0.6,2.1,0.1,4.1C46.2,265.3,45.7,267.6,46.8,269.9L46.8,269.9z    M57.7,279.3L57.7,279.3c0,0.1,0,0.1,0.1,0.2c0.2,0.7,0.4,1.4,0.6,2.2c0.7,4,0.7,5.1,0.8,7.8c0,0.7,0,1.6,0.1,2.6   c0.1,3-0.2,8.6-0.3,12.7c-0.1,2.5-0.2,4.4-0.2,5l0,0.9c0.1,2.5,0.4,9,0,11.5c-0.1,0.7-0.2,1.3-0.3,1.8c-0.4,1.8-0.6,3.2,0,6.2   c0.3,1.6,0.6,3.7,0.9,5.5c0.4,2.9,0.6,4.5,1,5.2c-2.8-0.9-6.4-2.7-8.5-5.6c-1.3-1.9-1.8-4.2-1.3-6.6c0.2-1,0.3-2,0.5-3   c0.6-3.9,1.3-8.2,3.8-12.5c-0.5-0.4-0.9-0.7-1.4-1.1c-0.5,0.9-1,1.8-1.4,2.7c-1.6-0.9-5-3.3-4.1-7.1c0.5-2.1,1.1-3.5,1.5-4.6   c0.8-1.9,1.3-3.2,0.6-5.7c-1.3-5-1.4-12,2.7-15.7c1.3-1.2,2.6-3,3.6-4.9C56.8,277.3,57.3,278.2,57.7,279.3L57.7,279.3z M79.9,219.1   c-3.5,4.3-3.8,6.8-4.1,8.8c-0.1,1.1-0.3,2-0.9,3.1c-0.4,0.7-0.7,1.2-0.9,1.7c-0.3-1-0.7-2.2-1-3.7c-0.6-2.4-0.3-2.8,0.1-3.6   c0.3-0.5,0.7-1.2,0.9-2.4c0.4-2.6-1.5-8.5-2.1-10.4c9.2-0.7,14.1-3.4,15.6-4.4c0,0.1,0,0.3,0.1,0.4c0.1,0.8,0.2,1.6,0.6,2.4   C87.1,211.6,84.3,213.7,79.9,219.1L79.9,219.1z M82.5,223.2l7.3,29.7l5.2-1.3c0.4,0.4,0.9,0.9,1.4,1.2c-1.1,0.9-5.7,4.7-7.3,6.9   c-1.9,2.6-3,5.6-3.8,8.7c-0.6,2.3-1.7,4.5-2.6,5.9c-1.3-2.9-4.3-9.4-4.9-10.1c-1.3-1.7-3.1-4.1-3.1-5.7c0-1.1,0.2-1.7,0.4-2.3   c0.3-0.8,0.6-1.6,0.3-3.4c-0.3-1.8-0.7-3-1.2-4.3c-0.3-0.8-0.7-1.7-1-2.8c-0.4-1.4,0.2-3,0.8-4.6c0.4-1.2,0.9-2.5,0.9-3.6   c0-0.7-0.1-1.2-0.2-1.8h0c0,0,0-0.9,1.7-3.7c0.8-1.4,1-2.6,1.2-3.8c0.2-1.9,0.5-4,3.7-7.9c4.2-5.2,6.9-7.2,7.7-7.7   c1.4,2,4.4,5.9,5.8,7.7L82.5,223.2z M98.4,239.7c-0.6,0.4-1.5,1.5-2.6,2.6l-4.8-19.4l6.3-1.5l4.1,17.5   C100.5,238.7,99.4,239,98.4,239.7L98.4,239.7z M92,247.7c0.1,0.1,0.7,1.2,1.7,2.4l-2.6,0.7l-6.5-26.2l4.7-1.2l5.1,20.6   c-1.1,1.3-2.1,2.5-2.3,2.7l-0.4,0.5L92,247.7z M104.7,250c-0.9,0.9-2.8,2.5-4,2.7c-2.6,0.3-5.5-3.4-6.8-5.4   c1.5-1.8,4.6-5.4,5.6-6.2c0.6-0.5,1.2-0.6,1.8-0.5c1.6,0.4,3.1,2.7,3.7,3.7C104.6,246.3,104.4,248.4,104.7,250L104.7,250z    M105,264.3c0.3,1.1,0.4,2,0.5,2.9c-1.2,0.6-4.7,2.7-5.9,8.1c-0.8,3.2-1.1,5.4-1.3,7c-0.2,1.4-0.3,2.4-0.6,3.2   c-0.6,1.6-7.2,10-10.7,13.5c-0.2-0.6-0.3-1.1-0.4-1.5c-0.3-1.4,0.7-2.9,1.8-4.5c1.1-1.6,2.2-3.3,2.4-5.2c0.1-1.6-0.3-2.4-0.7-3.1   c-0.5-1.1-1.3-2.5-1.1-8.4c0.3-8.6,1.8-14.9,2.1-16.2c1.9-2.1,6-5.5,7-6.3c0.8,0.4,1.6,0.6,2.4,0.6c0.2,0,0.3,0,0.5,0   c1.5-0.2,3.2-1.5,4.3-2.5c0.4,2,0.1,3.7-0.2,5.5C104.7,259.5,104.3,261.6,105,264.3L105,264.3z M57.5,204.1   c1.4,0.7,2.5,0.7,3.9,0.8c0.9,0,2,0.1,3.5,0.3c1.6,0.2,2.6,1,3.6,1.6c1.1,0.7,2.2,1.5,3.8,1.5c0.1,0,0.3,0,0.4,0   c3.1-0.3,5-2.5,6.4-4.3l0.4-0.5c1.2-1.5,3.7-1.8,3.7-1.8l0.2,0l0,0c0.6,1.1,2,3.9,3.2,4.8c-0.7,0.5-6.5,4.5-18.9,4.5   c-0.1,0-0.2,0-0.3,0c-15.1-0.1-21.2-5.4-22-6.3c2.5-2.8,5.1-4.8,7.1-6.2l0.7,1.5C53.4,200.1,55.3,203,57.5,204.1L57.5,204.1z    M68.2,197.1c0.8,0.5,2.2,0.9,3.6,0.9c0.6,0,1.2-0.1,1.8-0.3c0.3-0.1,0.7-0.3,1.1-0.5l6.2,3.4c-0.9,0.4-1.9,0.9-2.7,1.8l-0.4,0.5   c-1.3,1.7-2.8,3.5-5.2,3.7c-1.3,0.1-2.1-0.5-3.1-1.2c-1.1-0.8-2.3-1.6-4.3-1.9c-1.6-0.2-2.8-0.3-3.7-0.3c-1.3-0.1-2.1-0.1-3.1-0.6   c-1.7-0.9-3.4-3.4-3.4-3.4l-0.7-1.6c0.2-0.1,0.3-0.2,0.5-0.3c3.3-1.9,7.4-1.2,9.9-2.9C65.7,195.2,67.5,196.7,68.2,197.1L68.2,197.1   z M66.1,183c0.9-1.5,1.1-2.1,1.2-2.6c0.1-0.2,0.1-0.3,0.3-0.5c0,0,1.9-2.3,4-1.6c1.5,0.5,2.5,0.5,3.2,0.5c0.3,0,0.5,0,0.7,0   c0.6,0.2,0.8,0.6,1,1.3c0.2,0.6,0.5,1.3,1.2,1.9c0.7,0.5,1.5,0.7,2.1,0.8c0.8,0.2,1.1,0.2,1.3,0.8c0.8,2.3-1.9,6.5-3,7.9   c-1.5,1.7-4,4.3-5.1,4.6c-1.5,0.4-3.2,0-4-0.5c-0.6-0.4-2.6-1.9-3.8-2.9c0-0.1,0-0.1,0.1-0.2c0.5-3.2-0.6-4.3-2-5.7   c0,0-0.3-0.3-0.4-0.3C63.8,185.7,65.1,184.6,66.1,183L66.1,183z M84.6,189.2c0.2,1.5,0.4,2.8-0.9,4.1c-1.3,1.3-3.8,0.7-5.1,0.3   c0.4-0.4,0.7-0.8,0.9-1c0.5-0.6,4.6-5.9,3.3-9.6c-0.5-1.5-1.7-1.7-2.6-1.9c-0.5-0.1-1-0.2-1.4-0.5c-0.3-0.2-0.4-0.5-0.6-1.1   c-0.3-0.8-0.6-1.8-2-2.3c-0.5-0.2-0.9-0.2-1.4-0.2c-0.6,0-1.4,0-2.6-0.4c-2.6-0.9-5,0.9-6,2.2c-0.4,0.5-0.5,0.8-0.6,1.2   c-0.1,0.3-0.2,0.8-1,2.1c-1.1,1.8-2.6,2.8-3.2,3.2c-0.2-0.1-0.4-0.2-0.6-0.4c-0.8-0.5-2.2-1.4-2.2-1.8c0-0.3,0.2-0.5,0.9-0.9   c0.6-0.4,1.4-0.9,1.9-1.8c0.2-0.3,0.3-0.8,0.5-1.4c0.3-1,0.6-2.3,1.3-2.9c0.4-0.3,1.9-0.4,2.9-0.5c1.3-0.1,2.3-0.1,3-0.5   c0.5-0.3,0.9-0.6,1.3-0.9c0.6-0.5,1.1-0.9,1.8-0.9c1.1-0.1,1.4,0.5,1.9,1.2c0.3,0.5,0.7,1.1,1.5,1.2c0.6,0.1,1.2-0.2,1.8-0.4   c0.8-0.3,1.3-0.5,1.8-0.3c0.5,0.2,0.9,1.4,1.3,2.2c0.4,0.9,0.7,1.7,1.2,2.2c0.2,0.2,0.4,0.4,0.5,0.6c0.4,0.5,0.9,1,2.2,1.6   c0.4,0.1,0.6,0.4,0.8,0.9c0.4,1.1,0.1,2.7-0.4,3.5C84.3,186.9,84.4,188,84.6,189.2L84.6,189.2z M60.4,259.9   c-0.3-1.5-0.5-2.7-0.6-3.8c-0.6-3.4-0.8-4.6-0.4-7.5c0.5-3.3-0.7-5.2-1.8-7c-0.3-0.5-0.6-1-0.9-1.5c-1.1-2.2-2.3-5.1-1.5-8   c0.7-2.5,2.2-8.7,0.1-12.5c-1.5-2.7-3.7-6.2-6.2-7.4c-2-0.9-6.3-1.3-7-1.3c0.3-1.5,0.7-2.8,1.1-3.4c0.4-0.5,0.8-1,1.1-1.5   c1.4,1.4,7.9,6.6,23.2,6.7c0.1,0,0.2,0,0.3,0c0.7,0,1.4,0,2.1,0c0.7,2.1,2.5,7.9,2.2,10.1c-0.1,0.9-0.4,1.3-0.7,1.8   c-0.6,1.1-1,2-0.3,4.9c0.4,1.7,0.8,3,1.1,4c0.5,1.6,0.8,2.6,0.8,4c0,0.9-0.4,1.9-0.8,3c-0.6,1.7-1.4,3.7-0.8,5.7   c0.3,1.2,0.7,2.1,1,3c0.5,1.2,0.9,2.3,1.1,3.9c0.2,1.4,0,1.9-0.2,2.5c-0.2,0.6-0.5,1.4-0.5,2.9c0,2.2,1.9,4.7,3.4,6.7   c0.5,0.6,0.9,1.2,1.2,1.7c0.1,0.1,3.4,7.5,4.1,9l0,0c0,0,0,0.1,0.1,0.1c0,0.1,0.1,0.1,0.1,0.2h0h0c0,0.1-2,10.3-3.5,13.1   c-1.7,3.2-3.6,6.2-6.5,6.5c0,0,0,0-0.1,0c-1.9,0-8.3-8.7-12.4-17.2l0,0c-0.6-1.5-1.4-2.6-2.1-3.5c0.2-0.4,0.5-0.9,0.7-1.3   C58.2,273.1,61.9,267.1,60.4,259.9L60.4,259.9z M48.8,270.4c1.2-1.5,3.4-0.8,4.2-0.4c1.5,0.9,2,4.4,1,7.1c-0.8,1.2-1.6,2.3-2.4,3.1   c-0.1,0.1-0.2,0.2-0.3,0.3l-0.4-3.5l-1.8,0.2l0.6,5.2c-0.2,0.3-0.3,0.5-0.5,0.8l-3-2.5c-0.2-0.1-1.8-1.6-0.7-3.8   c0.5-0.9,1-1.6,1.6-2.3C48.1,273.4,49.1,272.2,48.8,270.4L48.8,270.4z M95.6,343.4h-5.6c-0.2-2.8-0.8-12.1-1.7-15.7   c-1.2-4.3,0.3-11,1.3-14.6c1-3.7-0.7-8.7-1.9-12.3c3.4-3.1,10.9-12.5,11.7-14.7c0.4-1,0.5-2.1,0.8-3.6c0.2-1.6,0.5-3.7,1.2-6.8   c0.9-3.9,3.2-5.8,4.4-6.6c0.1,3.3-0.8,5.1-1.4,6.3c-0.2,0.5-0.4,0.9-0.6,1.3c-1,3.3-0.5,6.3,0.2,10.1l0.2,1.3   c0.7,4.4,1.1,7.4,0.1,9.9c-0.7,1.6-1.7,2.8-2.6,4.1c-1.5,2-3.1,4-4,7.8c-1.3,5.8-1.6,14.5-0.4,17.5c0.3,0.9,0.9,2,1.5,3.1   c1.2,2.3,2.7,5.1,2.8,7.4C101.6,340.4,97.3,342.8,95.6,343.4L95.6,343.4z M134,300.2c2.6-0.8,4.9-1.9,6.9-3.2c-0.4,2-0.7,5,0.2,8   c2.3,7.2,1.2,17.2,0.7,19.4c-0.4,1.7-1.7,4.5-2.2,5.4c-0.1,0-0.2,0.1-0.4,0.2c-1.3-0.4-2.8-0.6-4.5-0.6c-0.2,0-0.4,0-0.6,0   c-2.1,0.1-4,0.4-5.7,0.8c-2,0.4-3.7,0.7-5.1,0.5c-1.7-0.2-3.4-0.5-4.4-2c-1.3-1.8-1.4-4.9-0.5-9.3   C120.8,308.4,123.5,303.3,134,300.2L134,300.2z M142.8,304.4c-1.2-3.9,0-8,0.4-9c1.1-0.8,2.1-1.7,3.1-2.6c-0.4,2.1-0.6,4.9,0.5,7   c3.6,6.8,5,14.3,4.1,21.8c-0.3,2.4-1.4,10.4-1.7,12.6c-1.3-0.2-2.8-1-4-1.7l-0.5-0.3c-1-0.5-2.2-1.2-3.5-1.7c0.4-0.9,1.9-4,2.4-5.9   C144.2,322.1,145.2,311.9,142.8,304.4L142.8,304.4z M137.3,340.8c-0.3-0.6-1-3.8,1.4-7.2c0.5-0.7,0.9-1.2,1.1-1.5   c1.6,0.6,3,1.3,4,1.9l0.5,0.3c1.5,0.8,3.5,1.9,5.3,2c0.4,0.8,0.9,2.2,1.2,4c0.1,1,0.3,2.5,0.3,3.6h-12.3c-0.3-0.9-1-2-1.3-2.5   C137.5,341.1,137.4,340.9,137.3,340.8L137.3,340.8z M131.1,338.1c0-0.4,0-0.8,0-1.3c0-1.7-0.6-3.9-1-5.2c1.3-0.2,2.7-0.5,4.2-0.5   c1.4,0,2.6,0.1,3.8,0.4c-0.2,0.3-0.5,0.6-0.7,1c-2.9,4.1-2.1,8-1.6,9c0.1,0.2,0.2,0.3,0.3,0.6c0.6,1,1.6,2.7,1.4,4.3   c-0.2,1.3-3.1,2.4-4.6,2.7c-1.3,0.2-3,1-5.1,2.2c-1.7,1-4.4,2.7-5.9,3.6c-0.1-0.7-0.3-1.7-0.4-2.6c-0.2-1.4,1.4-3.3,3.1-4.2   c1.3-0.7,2.3-1.7,3.4-2.9h0.1v-0.1c0.3-0.4,0.7-0.8,1-1.2l0.6-0.7C131.3,341.2,131.2,339.7,131.1,338.1L131.1,338.1z M172.2,332   l0.1,11.8h-13.3c-0.3-0.6-0.4-1.2-0.5-1.9c-0.1-1.9,2.3-7.8,3.4-10.4c0.6,0,1.3,0,2.1-0.1c1.7-0.2,3-0.8,4.1-1.7   C168.9,330.5,170.4,331.8,172.2,332L172.2,332z M166.3,306.1c1.1,5,2.5,16,2.5,16.1c0,0,0.5,3.2-1.1,5.4c-0.9,1.1-2.2,1.8-3.9,2   c-1.6,0.2-2.7,0-3.8-0.1c-1.2-0.2-2.5-0.3-4.4,0c-1.7,0.6-2.2,1.6-2.7,2.5c-0.4,0.6-0.7,1.2-1.5,1.9c-0.1,0.1-0.2,0.1-0.3,0.2   c0.4-2.7,1.3-9.9,1.6-12.1c0.9-7.9-0.5-15.8-4.3-22.8c-1.5-2.8,0-7.4,0.3-8.4c0.1-0.1,0.1-0.1,0.2-0.2c5.7-5.3,10.7-9.9,19.9-7.6   c-0.2,0.8-0.3,1.6-0.5,2.3C166.7,291.5,165.1,300.3,166.3,306.1L166.3,306.1z M163.9,246.4c0.9,0,1.8-0.1,2.7-0.3   c0.9,2.2,3.7,9,3.9,13.7c0.2,4.7-0.1,13.6-1.3,20.7c0,0.2-0.1,0.4-0.1,0.6c-10.1-2.4-15.6,2.7-21.5,8.1c-4,3.7-8.2,7.5-14.2,9.3   c-4.8,1.4-8,3.2-10.4,5.7c0.8-2.2,2.6-5.5,6.8-8c2.2-1.3,3.6-3.7,5-6c0.9-1.6,1.9-3.2,3-4.4c3.1-3.2,4.7-4.9,7.2-7l0.8-0.7   c2.2-1.9,4.3-3.7,7.3-7.8c2.9-4,6.8-10.7,9-17.6C163.2,249.6,163.7,247.6,163.9,246.4L163.9,246.4z M159.8,238.9   c-0.4,0.9-0.7,1.8-0.3,2.4c0.1,0.2,0.4,0.5,1,0.5h0l0.4,0c1.5,0,3.6-0.1,4.8-1.8c0.9-1.2,1.5-1.8,1.9-2v0.1c0,0.9,0,2.3,1.3,3   c0.7,0.3,1.2,1,2.1,1.9c-2.2,0.9-5,1.7-7.9,1.7c-4,0.1-7.7-1-9.7-1.7c0.3-0.2,0.5-0.4,0.8-0.6c0.7-0.6,1.2-1.5,1.6-2.4   C157.2,239.7,158.6,239.4,159.8,238.9L159.8,238.9z M157,235.1c0.1-1.1,1.9-3.5,2.6-4.1c0.9-0.9,1.4-2.6,1.1-4   c-0.2-1.1-1.3-1.4-2.2-1.7c-0.3-0.1-0.8-0.3-0.8-0.2c0.1-0.4,1.3-1.6,3.2-2.4c1.9-0.8,4-1,4.5-0.5c1,1,0.6,2.3-0.1,4.2   c-0.5,1.3-1,2.5-0.5,3.6c0.3,0.6,0.9,1,1.7,1.3c0.6,0.2,1.4,0.1,2.1,0c1.7-0.2,3.6-0.5,5.6,2c0.5,0.6,0,2.2-0.3,3.5   c-0.5,1.7-0.9,3.3-0.1,4.3c0.1,0.2,0.3,0.3,0.5,0.5c-0.4,0.2-0.9,0.5-1.6,0.8c-1.3-1.6-1.5-2.2-2.8-2.8c-0.3-0.1-0.3-0.7-0.3-1.3   c0-0.7,0-1.6-0.8-1.9c-0.9-0.3-2.3,0-4.3,2.8c-0.6,0.9-1.9,1-3.2,1c0.1-0.2,0.2-0.5,0.3-0.7c0.4-1,0.8-1.9,0.2-2.5   c-0.6-0.6-1.5-0.1-1.9,0.1c-0.9,0.5-2.1,0.8-3.3,1C156.7,237,156.8,236,157,235.1L157,235.1z M166.6,221c-1.5-1.6-4.8-0.7-6.5,0.1   c-1.6,0.7-4.5,2.5-4.2,4.2c0.1,1,1.2,1.4,2,1.6c0.3,0.1,0.9,0.3,1,0.4c0.2,0.8-0.1,1.9-0.6,2.4c-0.2,0.2-0.6,0.7-1.1,1.3   c-2-1.5-3.3-3.9-3.3-6.5c0-4.4,3.6-8,8-8c4.4,0,8,3.6,8,8c0,1.8-0.6,3.6-1.8,5c-0.5,0.1-1,0.1-1.2,0.1c-0.2-0.1-0.5-0.2-0.6-0.4   c-0.2-0.4,0.2-1.3,0.5-2.2C167.5,225.3,168.5,222.9,166.6,221L166.6,221z M115.5,301.7c1.6,2.1,4.1,4.7,5.1,5.7   c-1.8,3-2.9,6.8-3.9,11.5c-1.1,5-0.8,8.5,0.8,10.7c1.6,2.2,4.1,2.6,5.6,2.7c1.6,0.2,3.3-0.1,5.1-0.4c0.4,1.1,1,3.3,1,4.9   c0,0.5,0,1,0.1,1.4c0.1,1.5,0.1,2.4-1.1,3.8l-0.6,0.7c-0.2,0.2-0.4,0.5-0.6,0.7H99.3c1.9-1.3,4.1-3.2,4-5.6c-0.1-2.7-1.7-5.8-3-8.2   c-0.6-1.1-1.1-2.1-1.4-2.9c-0.9-2.4-0.9-10.7,0.5-16.5c0.8-3.4,2.2-5.2,3.7-7.1c1-1.3,2.1-2.6,2.9-4.5c1.3-2.9,0.8-6.3,0.1-10.9   l-0.2-1.3c-0.6-3.7-1.1-6.4-0.2-9.3c0.1-0.3,0.3-0.6,0.4-1c1-1.9,2.6-5.1,0.8-12.4c-0.6-2.4-0.3-4.2,0.1-6.2   c0.4-2.2,0.8-4.4-0.2-7.5c-0.7-2.2,0.2-6.9,1.1-8.9c1.8,2.8,4.3,5.1,5.7,6.2c-1.5,2-2.3,4.2-1.4,6.7c0.9,2.7,1.8,4.4,2.7,6   c1.4,2.6,2.3,4.3,1.9,8.5c-0.3,2.6-0.5,5-0.7,7.3c-0.4,4-0.7,7.4-1.2,10.5C113.8,290.8,113.3,298.6,115.5,301.7L115.5,301.7z    M116.1,259.5c-0.8-1.5-1.7-3.2-2.5-5.7c-1.8-5.6,7.3-10.2,11.2-12.1c0.5-0.3,0.9-0.5,1.4-0.8c3.1-1.7,7-3.8,11.7-2.8   c0.6,0.1,1.5,0.3,2.4,0.5c-0.6,1.8-2.1,6.5-4.2,9.4c-2.7,3.8-7.1,8.7-8.6,9.7c-2,1.3-4.8,5.6-5.8,8.9c-0.6,2-2.1,7.2-4.3,9.5   c0.2-2.2,0.4-4.6,0.7-7.1C118.8,264.2,117.6,262.1,116.1,259.5L116.1,259.5z M145.4,217.7c-1.6,0.5-3.2,1-4.6,1.5   c-0.3-0.4-0.7-0.9-1.1-1.6c-0.4-0.7-0.5-2-0.5-3.2c0-0.9-0.1-1.9-0.3-2.7c-0.2-0.7-0.3-1.6-0.4-2.6c-0.2-1.8-0.5-3.7-1-4.7   c-0.5-0.9-1.6-1.5-2.6-1.8c1-0.9,2.2-3.4,2.5-4.3c0,0,0.1-0.1,0.1-0.1c0,0,1.4-1.1,3.5-1.4c1.4-0.2,3,0.1,4,0.2   c-0.3,0.8-0.6,2-0.5,3.1c0.1,0.9,0.3,3.9,0.9,5.7c0.5,1.5,1.4,3.8,1.9,4.9c0.3,0.6,0.7,1.4,0.9,2   C147.4,214.9,146,217.4,145.4,217.7L145.4,217.7z M168.3,178.7c-0.5-2.8-1.5-5.3-2.9-7.6c5.7-1.1,10.1-2.5,13.1-3.9v8   C176.4,176.3,173.6,177.6,168.3,178.7L168.3,178.7z M168.6,180.6c4.9-1,7.8-2.1,10-3.3v45.7c-0.2-0.3-0.3-0.6-0.5-0.9l-0.2-0.4   c-0.2-0.3-0.5-0.7-1.1-1.3c-2-2.3-6.8-7.6-7.6-14.6c-0.6-4.8-3.4-8.5-4.6-9.8c2.7-3.9,4.1-8.4,4.1-13.1   C168.7,182.1,168.7,181.3,168.6,180.6L168.6,180.6z M159.7,196.7c0.5,0.2,1,0.2,1.6,0.2c0.6,0,1.2-0.1,1.7-0.2   c0.3,0.4,2.7,3,3.9,6.8c-1.4-0.4-3.4-1.9-4.7-2.9c-0.6-0.5-1.2-0.9-1.6-1.1c-1.3-0.8-2.2-0.5-3.1-0.2c-0.9,0.3-1.7,0.6-3.4-0.1   c-1.9-0.7-3.1-3.6-2.5-5.8c0.7-2.7,0.4-7.5,0.2-10.2c-0.1-1.6-1.3-5.8-3.8-7.3c-0.8-0.5-1.8-0.9-2.8-1.1c1-0.9,2.3-1.5,4.8-1.4   c1.1,0.1,2.2,0.8,3.2,2c1.6,2,2.4,4.9,2,7L155,183C154.3,186.4,152.8,194.4,159.7,196.7L159.7,196.7z M131.3,192.9   c-0.7-1.2-1.4-2.4-1.4-3.6c0-1.3,0.6-2.1,1.1-3c0.6-1,1.2-2,1.1-3.4c-0.2-2.2,0.4-7.5,3.6-8.8c2.6-1.1,4.2-0.5,5.2,0.4   c-1.3,0.2-2.4,0.6-3.3,1.2c-2.3,1.8-2.9,3.5-3.2,5.1c-0.2,0.9-0.7,6.4-0.6,8c0.2,2.3,1.1,4.6,1.5,5.3c0.3,0.5,0.6,2.7,0.5,3.6   c-0.3,0.9-1.4,3-2.2,3.6c-0.8,0.6-1.9,1.5-4.4,1c-1.5-0.3-2.7-0.6-3.5-0.8c-0.3-1-0.5-2.5,0.1-2.7c0.4-0.2,1.1-0.1,1.8,0.1   c1.4,0.3,3.2,0.6,4.6-1.4C133.2,196,132.2,194.4,131.3,192.9L131.3,192.9z M132.3,160.9v-18.2c0-2.7,9-8.9,10.5-10   c2.7,2,8.9,7.3,9.4,10.8v17.2c-2.1-0.6-4.3-1-6.6-1c-2.5,0-4.9,0.4-7.2,1.2L132.3,160.9z M134.4,162.6c-4.1,2.3-7.4,5.7-9.4,9.9   c-6.3-0.9-11.7-2.4-15.4-4.3c0.6-0.3,1.3-1,1.3-1c0.6-0.7,1-1.6,1-2.5c0-0.8-0.2-1.5-0.6-2.1H134.4z M85.6,125v-18.3h44.6V125h-3.8   v1.8h3.8v34.2h-2.7c-1.3-9.8-16.5-33.3-18.7-36.6v-8.9h-2.1v9c-2.3,3.5-17,25.9-18.3,36.6h-2.9v-34.2h3.8V125L85.6,125z    M58.9,162.6c-2.9,1.6-5.4,3.9-7.4,6.5c-6.4-1.3-11.4-2.8-14.3-4.4l0,0.1v-2.2L58.9,162.6z M47,133.3c2.8,2.1,9.5,7.7,9.7,11.3   v16.3H37.2v-19.6C40.7,137.8,45.5,134.3,47,133.3z M37.2,125v-2.2l19.5-10.7v28c-2.6-3.7-7.4-7.3-8.8-8.4v-7H46v7.1   c-1.4,1-5.4,3.9-8.8,7v-12.2h4.2V125L37.2,125z M48.7,355.6l0-6.9l-5.3,0v-3.5h16.7c-0.9,1.3-1.6,2.6-1.8,3.3   c-0.4,1.3-0.3,3.1,2.5,4.6c0.5,0.3,1.2,0.4,2,0.4c2.2,0,4.9-1.1,5.5-2.2c0.6-1,0.8-3.8,0.5-6H80v-0.1c0.9,1.7,1.6,2.7,2.4,3.2   c0.5,0.3,1.2,1.1,1.8,1.8c1.1,1.4,2.4,3,4.1,3c0.3,0,0.7,0,1.2,0c0.6,0,1.2,0.1,1.8,0.1c2.3,0,4.6-0.3,5-2.1c0.7-3-2.4-4.3-4.3-5.1   c-0.5-0.2-1-0.4-1.3-0.6c0,0-0.1-0.1-0.1-0.1h34.7c-0.6,0.6-1.2,1-1.8,1.4c-2.2,1.2-4.3,3.7-4,6c0.2,1.1,0.4,2.3,0.5,3L48.7,355.6z    M97.7,365.3v3c-2.1-0.2-4-0.3-5.4-0.3c-3.9-0.1-6.3,0.3-8.6,0.9v-11.5h10.9l-5.3,7.9L97.7,365.3z M92.5,363.6l4.2-6.3h0.9v6.3   H92.5z M153,348.9c-0.1-0.7-0.1-1.6-0.1-2.8c0-0.3,0-0.6,0-1h4.7c0.3,0.6,0.6,1.2,1,1.8c0.7,1.1,1.4,2.4,2.1,4   c0.3,0.8,0.4,1.5,0.1,2.1c-0.6,1.2-2.5,1.8-3.1,1.9c-1.7,0.2-3.9,0.1-4.4-0.3c-0.4-0.3-0.3-2.5-0.3-3.5   C153,350.3,153,349.5,153,348.9L153,348.9z M178.6,330.1v18.6l-4.3,0l-0.1-16.8C176,331.5,177.5,330.9,178.6,330.1L178.6,330.1z    M178.6,327.7c-0.1,0.1-0.2,0.2-0.4,0.3c-0.2,0.3-0.5,0.5-0.8,0.7c-1.3,1-3.2,1.3-4.6,1.5c-1.2,0.2-2.7-1.1-3.5-1.9   c1.8-2.7,1.3-6.3,1.3-6.4c-0.1-0.5-1.5-11.2-2.6-16.2c-0.9-4.2-0.2-11.4,2-20.2c0.3-1.4,0.7-3,1-4.8c1.2-7.2,1.5-16.3,1.3-21.1   c-0.2-4.8-2.9-11.5-3.9-14c0.2-0.1,0.5-0.1,0.7-0.2c9.2,11,9.4,18.7,9.4,22.9L178.6,327.7C178.6,327.7,178.6,327.7,178.6,327.7   L178.6,327.7z M180.4,160.9v-19.6c29.1,22.2,46.4,57.1,46.4,93.8c0,5-0.3,10-1,15h-12.2v-32.8h4.3v-1.8h-4.3v-16.6   c-0.7,0-1.4,0-2.1,0v16.6h-4.3v1.8h4.3V250h-10.2l0-43.2h5.9V205h-5.9l0-20h3.3v-1.8h-3.3l0-4.8h3.3v-1.8h-3.3l0-4.2h2.1v-1.8h-2.1   l0-1.9h-2.1l0,1.9h-1.9v1.8h1.9v4.2h-3.1v1.8h3.1l0,4.8h-3.1v1.8h3.1l0,20h-6.4v1.8h6.4l0.1,66.1h-11v-77.8l4-6.4l-4.9-10.5   l-4.5,10.2l3.5,6.4l0,0l0.2,0.2v64.2c-0.2-0.3-0.4-0.6-0.6-0.9c-1.7-2.4-3.8-5.3-3.8-9.3c0-0.4,0.3-1.3,0.6-2.3   c0.7-2,1.7-5,1.7-8.7c0-2.8-1.4-6.9-4.2-12.1v-63.4h4.9v-1.8L180.4,160.9z M83.1,101.9h49.5v2.9H83.1V101.9z M108.6,96.3h3.3v-1.8   h-3.3v-4.4c9,0.2,17.1,4.2,20.2,10h-20.2V96.3z M108.5,87.4C27.6,87.4-38.2,153.2-38.2,234c0,51.4,26.6,96.7,66.7,122.9l0.8,0.5   c22.8,14.7,50,23.3,79.2,23.3c80.9,0,146.6-65.8,146.6-146.7C255.1,153.2,189.4,87.4,108.5,87.4 M108.5,384.9   c-83.2,0-150.8-67.7-150.8-150.8c0-83.2,67.7-150.8,150.8-150.8c83.2,0,150.8,67.7,150.8,150.8   C259.3,317.2,191.7,384.9,108.5,384.9z M108.5,81.4C24.4,81.4-44.1,149.9-44.1,234c0,84.1,68.5,152.6,152.6,152.6   c84.1,0,152.6-68.5,152.6-152.6C261.1,149.9,192.6,81.4,108.5,81.4"/>
</g>
</svg>